<?xml version="1.0" standalone="no"?>
<!DOCTYPE svg PUBLIC "-//W3C//DTD SVG 20010904//EN"
 "http://www.w3.org/TR/2001/REC-SVG-20010904/DTD/svg10.dtd">
<svg version="1.0" xmlns="http://www.w3.org/2000/svg"
 width="32.000000pt" height="32.000000pt" viewBox="0 0 32.000000 32.000000"
 preserveAspectRatio="xMidYMid meet">

<g transform="translate(0.000000,32.000000) scale(0.100000,-0.100000)"
fill="#000000" stroke="none">
<path d="M116 288 c-9 -12 -16 -41 -16 -63 0 -29 -3 -36 -10 -25 -9 13 -10 13
-10 -1 0 -8 11 -30 25 -49 28 -37 31 -60 13 -78 -9 -9 -8 -12 5 -12 9 0 16 3
16 8 -1 4 -1 18 0 32 1 22 3 23 12 7 6 -10 8 -25 5 -33 -3 -8 -2 -14 3 -14 5
0 11 10 14 22 l6 22 26 -24 c14 -13 27 -22 28 -19 2 2 -3 34 -13 71 -11 46
-25 75 -43 92 -31 29 -35 56 -9 56 15 1 15 2 -2 15 -26 20 -32 19 -50 -7z"/>
<path d="M180 79 c0 -8 14 -28 30 -44 39 -37 39 -15 0 27 -20 22 -30 28 -30
17z"/>
</g>
</svg>
